<svg version="1.1" xmlns="http://www.w3.org/2000/svg" viewBox="0 0 1396.5082451097664 449.60714285714266" width="1396.5082451097664" height="449.60714285714266">
  <!-- svg-source:excalidraw -->
  
  <defs>
    <style>
      @font-face {
        font-family: "Virgil";
        src: url("https://excalidraw.com/Virgil.woff2");
      }
      @font-face {
        font-family: "Cascadia";
        src: url("https://excalidraw.com/Cascadia.woff2");
      }
    </style>
  </defs>
  <rect x="0" y="0" width="1396.5082451097664" height="449.60714285714266" fill="#ffffff"></rect><g stroke-opacity="0.6" fill-opacity="0.6" stroke-linecap="round" transform="translate(853.5082451097664 49.14285714285711) rotate(0 266.5 160.5)"><path d="M15.42 25.33 C15.42 25.33, 15.42 25.33, 15.42 25.33 M15.42 25.33 C15.42 25.33, 15.42 25.33, 15.42 25.33 M3.22 63.75 C15.87 50.07, 26.92 34.33, 50.45 9.41 M3.22 63.75 C17.03 46.91, 29.08 33.34, 50.45 9.41 M3.48 87.83 C21.45 69.26, 40.06 49.45, 74.34 6.32 M3.48 87.83 C31.08 58.64, 60.44 24.76, 74.34 6.32 M3.75 111.91 C20.63 92.4, 44.67 71.32, 92.32 10.03 M3.75 111.91 C36.49 68.38, 70.2 29.41, 92.32 10.03 M3.36 136.75 C39.6 100.96, 69.91 57.2, 113.58 9.96 M3.36 136.75 C43.94 87.99, 86.45 35.66, 113.58 9.96 M3.63 160.83 C47.89 108.44, 89.16 65.57, 134.18 10.64 M3.63 160.83 C50.95 102.84, 101.44 44.86, 134.18 10.64 M3.24 185.67 C57.18 120.67, 110.6 58.13, 155.44 10.57 M3.24 185.67 C60.46 123.38, 114.76 59.74, 155.44 10.57 M3.5 209.75 C60.34 150.65, 115.7 87.72, 176.7 10.5 M3.5 209.75 C45.96 164.2, 82.67 122.5, 176.7 10.5 M3.77 233.83 C48.67 189.85, 86.61 139, 197.96 10.44 M3.77 233.83 C52.14 177.82, 102.65 121.43, 197.96 10.44 M2.07 260.18 C67.15 186.49, 135.94 113.52, 219.22 10.37 M2.07 260.18 C86.49 165.05, 166.58 70.03, 219.22 10.37 M7.58 278.22 C70.8 207.84, 129.89 138.01, 240.48 10.3 M7.58 278.22 C70.68 209.29, 135.15 135.36, 240.48 10.3 M15.72 293.24 C97.11 201.92, 181.92 110.76, 261.74 10.23 M15.72 293.24 C73.37 230.29, 129.37 164.53, 261.74 10.23 M25.83 306.01 C103.75 214.88, 183.62 123.97, 283 10.16 M25.83 306.01 C95.49 220.15, 170.22 137.33, 283 10.16 M38.56 315.75 C108.59 230.05, 180.67 149.05, 304.26 10.09 M38.56 315.75 C103.41 241.53, 164.52 170.65, 304.26 10.09 M55.88 320.21 C111.9 258.34, 170.8 191.42, 325.52 10.02 M55.88 320.21 C163.4 201.96, 267.96 80.5, 325.52 10.02 M75.18 322.4 C156.16 225.53, 242.09 129.11, 346.78 9.95 M75.18 322.4 C180.12 199.52, 287.85 76.19, 346.78 9.95 M89.88 329.88 C142.5 267.22, 200.06 202.32, 367.39 10.64 M89.88 329.88 C195 209.09, 300.53 87.59, 367.39 10.64 M111.14 329.81 C181.29 248.39, 251.94 168.09, 388.65 10.57 M111.14 329.81 C214.98 214.73, 316.87 97.31, 388.65 10.57 M132.4 329.74 C241.63 198.32, 351.33 74.22, 409.91 10.5 M132.4 329.74 C197.72 254.16, 265.11 175.69, 409.91 10.5 M153.66 329.67 C222.37 250.02, 287.69 172.57, 431.17 10.43 M153.66 329.67 C257.13 213.87, 356.64 96.93, 431.17 10.43 M174.92 329.6 C250.83 242.17, 327.66 152.53, 457.68 4.32 M174.92 329.6 C256.66 234.48, 341.36 136.74, 457.68 4.32 M196.18 329.54 C258.59 261.29, 315.62 195.58, 480.25 2.75 M196.18 329.54 C271.2 244.66, 343.71 160.42, 480.25 2.75 M217.44 329.47 C318.97 212.58, 422.33 96.2, 496.26 8.71 M217.44 329.47 C284 254.64, 352.95 177.05, 496.26 8.71 M238.7 329.4 C302.4 262.06, 360.85 193.02, 509.65 17.7 M238.7 329.4 C308 244.78, 381.5 162.82, 509.65 17.7 M259.96 329.33 C315.29 267.96, 367.76 207.38, 521.72 28.2 M259.96 329.33 C340.43 242.14, 416.97 153.03, 521.72 28.2 M281.22 329.26 C372.91 218.1, 468.66 109.23, 527.9 45.49 M281.22 329.26 C346.15 253.04, 415.96 174.58, 527.9 45.49 M302.48 329.19 C382.65 233.86, 464.67 137.74, 532.1 65.04 M302.48 329.19 C362.29 255.95, 426.2 184, 532.1 65.04 M323.74 329.12 C391.67 254.81, 456.8 177.54, 541.55 78.56 M323.74 329.12 C393.56 252.25, 459.41 177.11, 541.55 78.56 M345 329.05 C385.52 280.75, 424.59 233.05, 541.82 102.64 M345 329.05 C405.86 263.7, 464.11 195.98, 541.82 102.64 M365.6 329.74 C397.38 287.8, 435.64 247.23, 541.43 127.48 M365.6 329.74 C410.86 280.57, 457.41 228.3, 541.43 127.48 M386.86 329.67 C440.14 264.17, 496.34 202.31, 541.69 151.56 M386.86 329.67 C431.56 278.68, 475.62 225.92, 541.69 151.56 M408.12 329.6 C441.09 298.14, 470.41 262.19, 541.96 175.64 M408.12 329.6 C457.71 272.23, 504.25 218.19, 541.96 175.64 M429.38 329.53 C457.01 296.11, 483.39 266.05, 541.57 200.48 M429.38 329.53 C460.64 293.86, 492.26 256.34, 541.57 200.48 M450.64 329.46 C483.31 289.82, 515.27 254.02, 541.83 224.56 M450.64 329.46 C483.18 296.09, 509.25 262.78, 541.83 224.56 M471.9 329.39 C488.46 307.04, 503.78 290.74, 536.85 254.68 M471.9 329.39 C491.99 303.96, 513.96 282.4, 536.85 254.68" stroke="#40c057" stroke-width="2" fill="none"></path><path d="M80.25 0 M80.25 0 C186.58 -0.29, 292.45 -2.76, 452.75 0 M80.25 0 C222.14 3.85, 364.14 2.6, 452.75 0 M452.75 0 C506.9 -2.72, 531.12 25.03, 533 80.25 M452.75 0 C507.37 -3.2, 533.32 28.67, 533 80.25 M533 80.25 C530.17 112.94, 533.82 152.21, 533 240.75 M533 80.25 C532.89 124.3, 536.45 168.05, 533 240.75 M533 240.75 C532.7 292.06, 504.65 323.21, 452.75 321 M533 240.75 C532.13 295.52, 505.94 318.75, 452.75 321 M452.75 321 C328.3 327.22, 204.83 327.41, 80.25 321 M452.75 321 C318.02 324.92, 181.95 325.12, 80.25 321 M80.25 321 C23.6 321.85, 1.61 296.44, 0 240.75 M80.25 321 C23.2 325.26, -2.22 293.82, 0 240.75 M0 240.75 C-3.75 197.68, -4.7 158.13, 0 80.25 M0 240.75 C-0.59 176.62, -1.28 116.82, 0 80.25 M0 80.25 C-1.45 27.24, 26.67 1.49, 80.25 0 M0 80.25 C-3.45 29.54, 24.79 3.17, 80.25 0" stroke="#000000" stroke-width="4" fill="none"></path></g><g stroke-opacity="0.7" fill-opacity="0.7" transform="translate(13.269439139617248 58.14285714285711) rotate(0 411.1194029850746 140)"><text x="0" y="225" font-family="Cascadia, Segoe UI Emoji" font-size="233.63652326602235px" fill="#000000" text-anchor="start" style="white-space: pre;" direction="ltr">CODING</text></g><g transform="translate(854.5082451097664 10) rotate(0 261.5 214.80357142857133)"><text x="0" y="271.6071428571427" font-family="Virgil, Segoe UI Emoji" font-size="223.33148028442056px" fill="#000000" text-anchor="start" style="white-space: pre;" direction="ltr">ଶ୍ରେଣୀ</text></g><g stroke-linecap="round"><g stroke-opacity="0.8" fill-opacity="0.8" transform="translate(9.864768090098892 411.1428571428571) rotate(0 637.608887823671 -2.5807271884235092)"><path d="M1.56 0.89 C359.79 -2.58, 721.3 -2.1, 1273.66 -1.1 M0.14 -0.22 C469.06 -7.58, 937.42 -8.29, 1275.08 -0.55" stroke="#000000" stroke-width="4" fill="none"></path></g></g><g stroke-opacity="0.8" fill-opacity="0.8" transform="translate(1331.5082451097664 405.1428571428571) rotate(0 0.00004999999998744897 0.00004999999998744897)" stroke="none"><path fill="#000000" d="M 6.28,-6.28 Q 6.28,-6.28 7.11,-5.11 7.95,-3.94 8.37,-2.57 8.80,-1.19 8.76,0.23 8.72,1.67 8.22,3.02 7.73,4.37 6.83,5.49 5.93,6.61 4.72,7.38 3.50,8.15 2.11,8.50 0.72,8.85 -0.71,8.73 -2.14,8.61 -3.46,8.05 -4.78,7.48 -5.85,6.52 -6.92,5.56 -7.63,4.31 -8.33,3.06 -8.60,1.65 -8.87,0.23 -8.68,-1.18 -8.49,-2.60 -7.85,-3.89 -7.21,-5.18 -6.19,-6.19 -5.18,-7.21 -3.89,-7.85 -2.60,-8.49 -1.18,-8.68 0.24,-8.87 1.65,-8.60 3.06,-8.33 4.31,-7.62 5.56,-6.92 6.52,-5.85 7.48,-4.78 8.05,-3.46 8.62,-2.14 8.73,-0.70 8.85,0.72 8.50,2.11 8.15,3.51 7.38,4.72 6.61,5.93 5.49,6.83 4.36,7.73 3.02,8.22 1.67,8.72 0.23,8.76 -1.20,8.80 -2.57,8.37 -3.94,7.95 -5.11,7.11 -6.28,6.27 -6.28,6.28 -6.28,6.28 -6.94,5.43 -7.60,4.59 -8.04,3.61 -8.48,2.64 -8.67,1.58 -8.86,0.53 -8.80,-0.53 -8.73,-1.60 -8.41,-2.62 -8.09,-3.64 -7.54,-4.56 -6.99,-5.47 -6.23,-6.23 -5.47,-6.99 -4.56,-7.54 -3.64,-8.10 -2.62,-8.41 -1.60,-8.73 -0.53,-8.80 0.53,-8.86 1.59,-8.67 2.64,-8.48 3.61,-8.04 4.59,-7.60 5.43,-6.94 6.28,-6.28 6.28,-6.28 L 6.28,-6.28 Z"></path></g><g stroke-opacity="0.8" fill-opacity="0.8" transform="translate(1363.5082451097664 405.1428571428571) rotate(0 0.00004999999998744897 0.00004999999998744897)" stroke="none"><path fill="#000000" d="M 6.28,-6.28 Q 6.28,-6.28 7.11,-5.11 7.95,-3.94 8.37,-2.57 8.80,-1.19 8.76,0.23 8.72,1.67 8.22,3.02 7.73,4.37 6.83,5.49 5.93,6.61 4.72,7.38 3.50,8.15 2.11,8.50 0.72,8.85 -0.71,8.73 -2.14,8.61 -3.46,8.05 -4.78,7.48 -5.85,6.52 -6.92,5.56 -7.63,4.31 -8.33,3.06 -8.60,1.65 -8.87,0.23 -8.68,-1.18 -8.49,-2.60 -7.85,-3.89 -7.21,-5.18 -6.19,-6.19 -5.18,-7.21 -3.89,-7.85 -2.60,-8.49 -1.18,-8.68 0.24,-8.87 1.65,-8.60 3.06,-8.33 4.31,-7.62 5.56,-6.92 6.52,-5.85 7.48,-4.78 8.05,-3.46 8.62,-2.14 8.73,-0.70 8.85,0.72 8.50,2.11 8.15,3.51 7.38,4.72 6.61,5.93 5.49,6.83 4.36,7.73 3.02,8.22 1.67,8.72 0.23,8.76 -1.20,8.80 -2.57,8.37 -3.94,7.95 -5.11,7.11 -6.28,6.27 -6.28,6.28 -6.28,6.28 -6.94,5.43 -7.60,4.59 -8.04,3.61 -8.48,2.64 -8.67,1.58 -8.86,0.53 -8.80,-0.53 -8.73,-1.60 -8.41,-2.62 -8.09,-3.64 -7.54,-4.56 -6.99,-5.47 -6.23,-6.23 -5.47,-6.99 -4.56,-7.54 -3.64,-8.10 -2.62,-8.41 -1.60,-8.73 -0.53,-8.80 0.53,-8.86 1.59,-8.67 2.64,-8.48 3.61,-8.04 4.59,-7.60 5.43,-6.94 6.28,-6.28 6.28,-6.28 L 6.28,-6.28 Z"></path></g></svg>